<svg width="25" height="25" viewBox="0 0 25 25" fill="none" xmlns="http://www.w3.org/2000/svg">
<path d="M3.84464 0.85565L12.2658 9.27686L20.6434 0.899283C20.8285 0.702317 21.0514 0.544752 21.2988 0.436034C21.5463 0.327317 21.8131 0.269687 22.0833 0.266602C22.6619 0.266602 23.2169 0.496454 23.626 0.905595C24.0351 1.31474 24.265 1.86965 24.265 2.44826C24.2701 2.71574 24.2204 2.98143 24.1192 3.22904C24.0179 3.47665 23.867 3.70094 23.6759 3.88816L15.1893 12.2657L23.6759 20.7524C24.0355 21.1042 24.2464 21.5805 24.265 22.0832C24.265 22.6618 24.0351 23.2167 23.626 23.6259C23.2169 24.035 22.6619 24.2649 22.0833 24.2649C21.8053 24.2764 21.5279 24.23 21.2687 24.1286C21.0096 24.0272 20.7744 23.873 20.578 23.6758L12.2658 15.2546L3.86645 23.654C3.68212 23.8444 3.4619 23.9964 3.2185 24.1013C2.97511 24.2061 2.71337 24.2617 2.44837 24.2649C1.86976 24.2649 1.31485 24.035 0.905706 23.6259C0.496565 23.2167 0.266712 22.6618 0.266712 22.0832C0.261626 21.8157 0.311252 21.55 0.412545 21.3024C0.513839 21.0548 0.664663 20.8305 0.855761 20.6433L9.34242 12.2657L0.855761 3.77908C0.49619 3.4273 0.285343 2.95094 0.266712 2.44826C0.266712 1.86965 0.496565 1.31474 0.905706 0.905595C1.31485 0.496454 1.86976 0.266602 2.44837 0.266602C2.97197 0.273147 3.47375 0.484768 3.84464 0.85565Z" fill="white"/>
</svg>
