<svg width="24" height="24" viewBox="0 0 24 24" fill="none" xmlns="http://www.w3.org/2000/svg">
<path fill-rule="evenodd" clip-rule="evenodd" d="M16.2525 0.756164C16.7369 0.271993 17.3937 0 18.0785 0C18.7633 0 19.4201 0.271993 19.9044 0.756164L23.2438 4.09553C23.7279 4.57985 23.9999 5.23664 23.9999 5.92146C23.9999 6.60629 23.7279 7.26307 23.2438 7.74739L21.1957 9.79543L14.2045 2.8042L16.2525 0.756164ZM12.3786 4.63014L0.756655 16.2521C0.272281 16.7363 8.52393e-05 17.3931 -6.10352e-05 18.078V21.4174C-6.10352e-05 22.1023 0.272039 22.7592 0.756379 23.2436C1.24072 23.7279 1.89763 24 2.58259 24H5.92195C6.60686 23.9999 7.26366 23.7277 7.74788 23.2433L19.3698 11.6214L12.3786 4.63014Z" fill="black"/>
</svg>
