<svg width="32" height="32" viewBox="0 0 32 32" fill="none" xmlns="http://www.w3.org/2000/svg">
<rect x="1.5" y="1.5" width="29" height="29" rx="14.5" fill="white" stroke="#4C37EE" stroke-width="3"/>
<path d="M23.7277 11.5765L13.8845 21.4198C13.7987 21.5058 13.6969 21.574 13.5847 21.6206C13.4725 21.6672 13.3523 21.6912 13.2308 21.6912C13.1094 21.6912 12.9891 21.6672 12.8769 21.6206C12.7648 21.574 12.6629 21.5058 12.5772 21.4198L8.27075 17.1133C8.18491 17.0275 8.11682 16.9256 8.07037 16.8134C8.02391 16.7013 8 16.5811 8 16.4597C8 16.3383 8.02391 16.2181 8.07037 16.1059C8.11682 15.9938 8.18491 15.8919 8.27075 15.806C8.35659 15.7202 8.4585 15.6521 8.57065 15.6056C8.6828 15.5592 8.80301 15.5353 8.9244 15.5353C9.0458 15.5353 9.166 15.5592 9.27816 15.6056C9.39031 15.6521 9.49222 15.7202 9.57806 15.806L13.2316 19.4596L22.4219 10.2708C22.5953 10.0974 22.8304 10 23.0756 10C23.3208 10 23.5559 10.0974 23.7292 10.2708C23.9026 10.4441 24 10.6792 24 10.9244C24 11.1696 23.9026 11.4047 23.7292 11.5781L23.7277 11.5765Z" fill="#4C37EE" stroke="#4C37EE"/>
</svg>
