<svg width="16" height="16" viewBox="0 0 16 16" fill="none" xmlns="http://www.w3.org/2000/svg">
<path d="M14.4 6.4H9.6V1.6C9.6 1.17565 9.43143 0.768687 9.13137 0.468629C8.83131 0.168571 8.42434 0 8 0C7.57565 0 7.16869 0.168571 6.86863 0.468629C6.56857 0.768687 6.4 1.17565 6.4 1.6V6.4H1.6C1.17565 6.4 0.768687 6.56857 0.468629 6.86863C0.168571 7.16869 0 7.57565 0 8C0 8.42435 0.168571 8.83131 0.468629 9.13137C0.768687 9.43143 1.17565 9.6 1.6 9.6H6.4V14.4C6.4 14.8243 6.56857 15.2313 6.86863 15.5314C7.16869 15.8314 7.57565 16 8 16C8.42434 16 8.83131 15.8314 9.13137 15.5314C9.43143 15.2313 9.6 14.8243 9.6 14.4V9.6H14.4C14.8243 9.6 15.2313 9.43143 15.5314 9.13137C15.8314 8.83131 16 8.42435 16 8C16 7.57565 15.8314 7.16869 15.5314 6.86863C15.2313 6.56857 14.8243 6.4 14.4 6.4Z" fill="#4C37EE"/>
</svg>
