<svg width="24" height="24" viewBox="0 0 24 24" fill="none" xmlns="http://www.w3.org/2000/svg">
<path d="M23.5916 5.36478L8.82671 20.1296C8.69811 20.2587 8.5453 20.3611 8.37705 20.4309C8.2088 20.5008 8.02841 20.5368 7.84623 20.5368C7.66405 20.5368 7.48366 20.5008 7.31541 20.4309C7.14716 20.3611 6.99435 20.2587 6.86575 20.1296L0.406127 13.67C0.277369 13.5413 0.175233 13.3884 0.105549 13.2202C0.0358656 13.0519 1.91865e-09 12.8716 0 12.6895C-1.91865e-09 12.5074 0.0358656 12.3271 0.105549 12.1589C0.175233 11.9907 0.277369 11.8378 0.406127 11.7091C0.534886 11.5803 0.687744 11.4782 0.855975 11.4085C1.02421 11.3388 1.20451 11.3029 1.38661 11.3029C1.5687 11.3029 1.74901 11.3388 1.91724 11.4085C2.08547 11.4782 2.23833 11.5803 2.36708 11.7091L7.84738 17.1894L21.6329 3.40613C21.893 3.14609 22.2456 3 22.6134 3C22.9811 3 23.3338 3.14609 23.5939 3.40613C23.8539 3.66617 24 4.01886 24 4.38661C24 4.75436 23.8539 5.10705 23.5939 5.36708L23.5916 5.36478Z" fill="#4C37EE"/>
</svg>
