<svg width="22" height="24" viewBox="0 0 22 24" fill="none" xmlns="http://www.w3.org/2000/svg">
<path d="M4.00002 24C3.26669 24 2.63869 23.7387 2.11602 23.216C1.59335 22.6933 1.33246 22.0658 1.33335 21.3333V4C0.955576 4 0.638688 3.872 0.382688 3.616C0.126688 3.36 -0.000868063 3.04356 2.08261e-05 2.66667C2.08261e-05 2.28889 0.128021 1.972 0.384021 1.716C0.640021 1.46 0.956465 1.33245 1.33335 1.33334H6.66669C6.66669 0.95556 6.79469 0.638671 7.05069 0.382671C7.30669 0.126671 7.62313 -0.000884275 8.00002 4.61361e-06H13.3334C13.7111 4.61361e-06 14.028 0.128005 14.284 0.384005C14.54 0.640005 14.6676 0.956449 14.6667 1.33334H20C20.3778 1.33334 20.6947 1.46134 20.9507 1.71734C21.2067 1.97334 21.3342 2.28978 21.3333 2.66667C21.3333 3.04445 21.2053 3.36134 20.9493 3.61734C20.6933 3.87334 20.3769 4.00089 20 4V21.3333C20 22.0667 19.7387 22.6947 19.216 23.2173C18.6934 23.74 18.0658 24.0009 17.3334 24H4.00002ZM6.66669 17.3333C6.66669 17.7111 6.79469 18.028 7.05069 18.284C7.30669 18.54 7.62313 18.6676 8.00002 18.6667C8.3778 18.6667 8.69469 18.5387 8.95069 18.2827C9.20669 18.0267 9.33424 17.7102 9.33335 17.3333V8C9.33335 7.62222 9.20535 7.30533 8.94935 7.04934C8.69335 6.79334 8.37691 6.66578 8.00002 6.66667C7.62224 6.66667 7.30535 6.79467 7.04935 7.05067C6.79335 7.30667 6.6658 7.62311 6.66669 8V17.3333ZM12 17.3333C12 17.7111 12.128 18.028 12.384 18.284C12.64 18.54 12.9565 18.6676 13.3334 18.6667C13.7111 18.6667 14.028 18.5387 14.284 18.2827C14.54 18.0267 14.6676 17.7102 14.6667 17.3333V8C14.6667 7.62222 14.5387 7.30533 14.2827 7.04934C14.0267 6.79334 13.7102 6.66578 13.3334 6.66667C12.9556 6.66667 12.6387 6.79467 12.3827 7.05067C12.1267 7.30667 11.9991 7.62311 12 8V17.3333Z" fill="black"/>
</svg>
